<?xml version="1.0" encoding="UTF-8"?>
<svg width="16px" height="22px" viewBox="0 0 16 22" version="1.1" xmlns="http://www.w3.org/2000/svg" xmlns:xlink="http://www.w3.org/1999/xlink">
    <!-- Generator: Sketch 51.2 (57519) - http://www.bohemiancoding.com/sketch -->
    <title>Shape</title>
    <desc>Created with Sketch.</desc>
    <defs></defs>
    <g id="Page-1" stroke="none" stroke-width="1" fill="none" fill-rule="evenodd">
        <g id="refresh" fill="#FFFFFF" fill-rule="nonzero">
            <path d="M8,5 L8,8 L12,4 L8,0 L8,3 C3.58,3 0,6.58 0,11 C0,12.57 0.46,14.03 1.24,15.26 L2.7,13.8 C2.25,12.97 2,12.01 2,11 C2,7.69 4.69,5 8,5 Z M14.76,6.74 L13.3,8.2 C13.74,9.04 14,9.99 14,11 C14,14.31 11.31,17 8,17 L8,14 L4,18 L8,22 L8,19 C12.42,19 16,15.42 16,11 C16,9.43 15.54,7.97 14.76,6.74 Z" id="Shape"></path>
        </g>
    </g>
</svg>